<?xml version="1.0" encoding="UTF-8" standalone="no"?>
<!DOCTYPE svg PUBLIC "-//W3C//DTD SVG 1.1//EN"
 "http://www.w3.org/Graphics/SVG/1.1/DTD/svg11.dtd">
<!-- Generated by graphviz version 2.43.0 (0)
 -->
<!-- Title: packages_CacheArchitecture Pages: 1 -->
<svg width="520pt" height="116pt"
 viewBox="0.00 0.00 519.50 116.00" xmlns="http://www.w3.org/2000/svg" xmlns:xlink="http://www.w3.org/1999/xlink">
<g id="graph0" class="graph" transform="scale(1 1) rotate(0) translate(4 112)">
<title>packages_CacheArchitecture</title>
<polygon fill="white" stroke="transparent" points="-4,4 -4,-112 515.5,-112 515.5,4 -4,4"/>
<!-- cache.cacheable -->
<g id="node1" class="node">
<title>cache.cacheable</title>
<polygon fill="none" stroke="black" points="320,-108 188,-108 188,-72 320,-72 320,-108"/>
<text text-anchor="middle" x="254" y="-86.3" font-family="Times,serif" font-size="14.00">cache.cacheable</text>
</g>
<!-- cache.local.connector -->
<g id="node2" class="node">
<title>cache.local.connector</title>
<polygon fill="none" stroke="black" points="170,-108 0,-108 0,-72 170,-72 170,-108"/>
<text text-anchor="middle" x="85" y="-86.3" font-family="Times,serif" font-size="14.00">cache.local.connector</text>
</g>
<!-- cache.local.local_cache -->
<g id="node3" class="node">
<title>cache.local.local_cache</title>
<polygon fill="none" stroke="black" points="244.5,-36 65.5,-36 65.5,0 244.5,0 244.5,-36"/>
<text text-anchor="middle" x="155" y="-14.3" font-family="Times,serif" font-size="14.00">cache.local.local_cache</text>
</g>
<!-- cache.local.local_cache&#45;&gt;cache.cacheable -->
<g id="edge1" class="edge">
<title>cache.local.local_cache&#45;&gt;cache.cacheable</title>
<path fill="none" stroke="black" d="M179.22,-36.12C191.92,-45.11 207.66,-56.24 221.42,-65.97"/>
<polygon fill="black" stroke="black" points="229.69,-71.81 218.93,-69.71 225.61,-68.92 221.52,-66.04 221.52,-66.04 221.52,-66.04 225.61,-68.92 224.12,-62.36 229.69,-71.81 229.69,-71.81"/>
</g>
<!-- cache.local.local_cache&#45;&gt;cache.local.connector -->
<g id="edge2" class="edge">
<title>cache.local.local_cache&#45;&gt;cache.local.connector</title>
<path fill="none" stroke="black" d="M137.7,-36.3C129.14,-44.86 118.66,-55.34 109.3,-64.7"/>
<polygon fill="black" stroke="black" points="102.1,-71.9 105.99,-61.64 105.64,-68.36 109.18,-64.82 109.18,-64.82 109.18,-64.82 105.64,-68.36 112.36,-68.01 102.1,-71.9 102.1,-71.9"/>
</g>
<!-- cache.redis.connector -->
<g id="node4" class="node">
<title>cache.redis.connector</title>
<polygon fill="none" stroke="black" points="511.5,-108 338.5,-108 338.5,-72 511.5,-72 511.5,-108"/>
<text text-anchor="middle" x="425" y="-86.3" font-family="Times,serif" font-size="14.00">cache.redis.connector</text>
</g>
<!-- cache.redis.redis_cache -->
<g id="node5" class="node">
<title>cache.redis.redis_cache</title>
<polygon fill="none" stroke="black" points="482.5,-36 297.5,-36 297.5,0 482.5,0 482.5,-36"/>
<text text-anchor="middle" x="390" y="-14.3" font-family="Times,serif" font-size="14.00">cache.redis.redis_cache</text>
</g>
<!-- cache.redis.redis_cache&#45;&gt;cache.cacheable -->
<g id="edge3" class="edge">
<title>cache.redis.redis_cache&#45;&gt;cache.cacheable</title>
<path fill="none" stroke="black" d="M356.73,-36.12C338.54,-45.49 315.81,-57.19 296.36,-67.2"/>
<polygon fill="black" stroke="black" points="287.4,-71.81 294.23,-63.23 291.84,-69.52 296.29,-67.23 296.29,-67.23 296.29,-67.23 291.84,-69.52 298.35,-71.23 287.4,-71.81 287.4,-71.81"/>
</g>
<!-- cache.redis.redis_cache&#45;&gt;cache.redis.connector -->
<g id="edge4" class="edge">
<title>cache.redis.redis_cache&#45;&gt;cache.redis.connector</title>
<path fill="none" stroke="black" d="M398.65,-36.3C402.64,-44.27 407.45,-53.9 411.87,-62.74"/>
<polygon fill="black" stroke="black" points="416.45,-71.9 407.95,-64.96 414.21,-67.42 411.98,-62.95 411.98,-62.95 411.98,-62.95 414.21,-67.42 416,-60.94 416.45,-71.9 416.45,-71.9"/>
</g>
</g>
</svg>
